<mxfile host="app.diagrams.net" modified="2023-02-17T12:50:47.411Z" agent="5.0 (Windows NT 10.0; Win64; x64) AppleWebKit/537.36 (KHTML, like Gecko) Chrome/109.0.0.0 Safari/537.36" etag="Dbj6dPiH8z13mczJeD7v" version="20.8.15" type="github">
  <diagram name="Page-1" id="13e1069c-82ec-6db2-03f1-153e76fe0fe0">
    <mxGraphModel dx="2295" dy="590" grid="1" gridSize="10" guides="1" tooltips="1" connect="1" arrows="1" fold="1" page="1" pageScale="1" pageWidth="1100" pageHeight="850" background="none" math="0" shadow="0">
      <root>
        <mxCell id="0" />
        <mxCell id="1" parent="0" />
        <mxCell id="7baba1c4bc27f4b0-2" value="GateServer" style="shape=umlLifeline;perimeter=lifelinePerimeter;whiteSpace=wrap;html=1;container=1;collapsible=0;recursiveResize=0;outlineConnect=0;rounded=1;shadow=0;comic=0;labelBackgroundColor=none;strokeWidth=1;fontFamily=Verdana;fontSize=12;align=center;" parent="1" vertex="1">
          <mxGeometry x="190" y="80" width="160" height="1360" as="geometry" />
        </mxCell>
        <mxCell id="7baba1c4bc27f4b0-10" value="" style="html=1;points=[];perimeter=orthogonalPerimeter;rounded=1;shadow=0;comic=0;labelBackgroundColor=none;strokeWidth=1;fontFamily=Verdana;fontSize=12;align=center;" parent="7baba1c4bc27f4b0-2" vertex="1">
          <mxGeometry x="75" y="100" width="10" height="150" as="geometry" />
        </mxCell>
        <mxCell id="DRyk3QGHLff0ThIQ0G42-23" value="" style="endArrow=classic;html=1;rounded=1;" edge="1" parent="7baba1c4bc27f4b0-2">
          <mxGeometry width="50" height="50" relative="1" as="geometry">
            <mxPoint x="-157" y="447.9999999999999" as="sourcePoint" />
            <mxPoint x="538" y="447.9999999999999" as="targetPoint" />
          </mxGeometry>
        </mxCell>
        <mxCell id="DRyk3QGHLff0ThIQ0G42-24" value="用户支付成功并提交支付结果" style="edgeLabel;html=1;align=center;verticalAlign=middle;resizable=0;points=[];rounded=1;" vertex="1" connectable="0" parent="DRyk3QGHLff0ThIQ0G42-23">
          <mxGeometry x="-0.199" relative="1" as="geometry">
            <mxPoint y="1" as="offset" />
          </mxGeometry>
        </mxCell>
        <mxCell id="DRyk3QGHLff0ThIQ0G42-34" value="" style="html=1;points=[];perimeter=orthogonalPerimeter;rounded=1;shadow=0;comic=0;labelBackgroundColor=none;strokeWidth=1;fontFamily=Verdana;fontSize=12;align=center;" vertex="1" parent="7baba1c4bc27f4b0-2">
          <mxGeometry x="75" y="730" width="10" height="512" as="geometry" />
        </mxCell>
        <mxCell id="DRyk3QGHLff0ThIQ0G42-88" value="" style="endArrow=classic;html=1;rounded=1;dashed=1;exitX=0.083;exitY=0.633;exitDx=0;exitDy=0;exitPerimeter=0;" edge="1" parent="7baba1c4bc27f4b0-2">
          <mxGeometry width="50" height="50" relative="1" as="geometry">
            <mxPoint x="255.33000000000038" y="888" as="sourcePoint" />
            <mxPoint x="80" y="889" as="targetPoint" />
          </mxGeometry>
        </mxCell>
        <mxCell id="DRyk3QGHLff0ThIQ0G42-89" value="返回db操作结果" style="edgeLabel;html=1;align=center;verticalAlign=middle;resizable=0;points=[];rounded=1;" vertex="1" connectable="0" parent="DRyk3QGHLff0ThIQ0G42-88">
          <mxGeometry x="-0.1641" y="3" relative="1" as="geometry">
            <mxPoint as="offset" />
          </mxGeometry>
        </mxCell>
        <mxCell id="7baba1c4bc27f4b0-3" value="PayServer" style="shape=umlLifeline;perimeter=lifelinePerimeter;whiteSpace=wrap;html=1;container=1;collapsible=0;recursiveResize=0;outlineConnect=0;rounded=1;shadow=0;comic=0;labelBackgroundColor=none;strokeWidth=1;fontFamily=Verdana;fontSize=12;align=center;" parent="1" vertex="1">
          <mxGeometry x="400" y="80" width="100" height="1360" as="geometry" />
        </mxCell>
        <mxCell id="7baba1c4bc27f4b0-13" value="" style="html=1;points=[];perimeter=orthogonalPerimeter;rounded=1;shadow=0;comic=0;labelBackgroundColor=none;strokeWidth=1;fontFamily=Verdana;fontSize=12;align=center;" parent="7baba1c4bc27f4b0-3" vertex="1">
          <mxGeometry x="45" y="115" width="10" height="125" as="geometry" />
        </mxCell>
        <mxCell id="DRyk3QGHLff0ThIQ0G42-37" value="" style="html=1;points=[];perimeter=orthogonalPerimeter;rounded=1;shadow=0;comic=0;labelBackgroundColor=none;strokeWidth=1;fontFamily=Verdana;fontSize=12;align=center;" vertex="1" parent="7baba1c4bc27f4b0-3">
          <mxGeometry x="45" y="738" width="10" height="200" as="geometry" />
        </mxCell>
        <mxCell id="DRyk3QGHLff0ThIQ0G42-38" value="" style="endArrow=classic;html=1;rounded=1;" edge="1" parent="7baba1c4bc27f4b0-3">
          <mxGeometry width="50" height="50" relative="1" as="geometry">
            <mxPoint x="-130.92857142857156" y="747.9999999999998" as="sourcePoint" />
            <mxPoint x="50" y="748" as="targetPoint" />
          </mxGeometry>
        </mxCell>
        <mxCell id="DRyk3QGHLff0ThIQ0G42-39" value="支付成功" style="edgeLabel;html=1;align=center;verticalAlign=middle;resizable=0;points=[];rounded=1;" vertex="1" connectable="0" parent="DRyk3QGHLff0ThIQ0G42-38">
          <mxGeometry x="-0.12" relative="1" as="geometry">
            <mxPoint as="offset" />
          </mxGeometry>
        </mxCell>
        <mxCell id="DRyk3QGHLff0ThIQ0G42-8" value="返回订单信息，失败返回错误" style="text;html=1;align=center;verticalAlign=middle;resizable=0;points=[];autosize=1;strokeColor=none;fillColor=none;dashed=1;rounded=1;" vertex="1" parent="7baba1c4bc27f4b0-3">
          <mxGeometry x="-125" y="180" width="180" height="30" as="geometry" />
        </mxCell>
        <mxCell id="DRyk3QGHLff0ThIQ0G42-96" value="" style="endArrow=classic;html=1;rounded=1;entryX=0.083;entryY=0.192;entryDx=0;entryDy=0;entryPerimeter=0;" edge="1" parent="7baba1c4bc27f4b0-3" target="DRyk3QGHLff0ThIQ0G42-98">
          <mxGeometry width="50" height="50" relative="1" as="geometry">
            <mxPoint x="-125.00000000000011" y="1009.9999999999999" as="sourcePoint" />
            <mxPoint x="104.16999999999996" y="1009.9999999999999" as="targetPoint" />
          </mxGeometry>
        </mxCell>
        <mxCell id="DRyk3QGHLff0ThIQ0G42-97" value="消费订单" style="edgeLabel;html=1;align=center;verticalAlign=middle;resizable=0;points=[];rounded=1;" vertex="1" connectable="0" parent="DRyk3QGHLff0ThIQ0G42-96">
          <mxGeometry x="-0.12" relative="1" as="geometry">
            <mxPoint as="offset" />
          </mxGeometry>
        </mxCell>
        <mxCell id="DRyk3QGHLff0ThIQ0G42-98" value="" style="html=1;points=[];perimeter=orthogonalPerimeter;rounded=1;shadow=0;comic=0;labelBackgroundColor=none;strokeWidth=1;fontFamily=Verdana;fontSize=12;align=center;" vertex="1" parent="7baba1c4bc27f4b0-3">
          <mxGeometry x="45" y="970" width="10" height="200" as="geometry" />
        </mxCell>
        <mxCell id="7baba1c4bc27f4b0-4" value="GameServer" style="shape=umlLifeline;perimeter=lifelinePerimeter;whiteSpace=wrap;html=1;container=1;collapsible=0;recursiveResize=0;outlineConnect=0;rounded=1;shadow=0;comic=0;labelBackgroundColor=none;strokeWidth=1;fontFamily=Verdana;fontSize=12;align=center;" parent="1" vertex="1">
          <mxGeometry x="540" y="80" width="100" height="1360" as="geometry" />
        </mxCell>
        <mxCell id="DRyk3QGHLff0ThIQ0G42-61" value="" style="endArrow=classic;html=1;rounded=1;dashed=1;" edge="1" parent="7baba1c4bc27f4b0-4" source="7baba1c4bc27f4b0-6">
          <mxGeometry width="50" height="50" relative="1" as="geometry">
            <mxPoint x="79.80000000000018" y="205" as="sourcePoint" />
            <mxPoint x="-90" y="205" as="targetPoint" />
          </mxGeometry>
        </mxCell>
        <mxCell id="DRyk3QGHLff0ThIQ0G42-62" value="返回订单信息" style="edgeLabel;html=1;align=center;verticalAlign=middle;resizable=0;points=[];rounded=1;" vertex="1" connectable="0" parent="DRyk3QGHLff0ThIQ0G42-61">
          <mxGeometry x="-0.1641" y="3" relative="1" as="geometry">
            <mxPoint as="offset" />
          </mxGeometry>
        </mxCell>
        <mxCell id="DRyk3QGHLff0ThIQ0G42-73" value="订单检查" style="text;html=1;align=center;verticalAlign=middle;resizable=0;points=[];autosize=1;strokeColor=none;fillColor=none;rounded=1;" vertex="1" parent="7baba1c4bc27f4b0-4">
          <mxGeometry x="-40" y="760" width="70" height="30" as="geometry" />
        </mxCell>
        <mxCell id="7baba1c4bc27f4b0-5" value="GooglePlay" style="shape=umlLifeline;perimeter=lifelinePerimeter;whiteSpace=wrap;html=1;container=1;collapsible=0;recursiveResize=0;outlineConnect=0;rounded=1;shadow=0;comic=0;labelBackgroundColor=none;strokeWidth=1;fontFamily=Verdana;fontSize=12;align=center;" parent="1" vertex="1">
          <mxGeometry x="680" y="80" width="100" height="1360" as="geometry" />
        </mxCell>
        <mxCell id="DRyk3QGHLff0ThIQ0G42-27" value="" style="curved=1;endArrow=classic;html=1;rounded=1;entryX=1.167;entryY=0.836;entryDx=0;entryDy=0;entryPerimeter=0;" edge="1" parent="7baba1c4bc27f4b0-5" target="DRyk3QGHLff0ThIQ0G42-18">
          <mxGeometry width="50" height="50" relative="1" as="geometry">
            <mxPoint x="50" y="458" as="sourcePoint" />
            <mxPoint x="100" y="408" as="targetPoint" />
            <Array as="points">
              <mxPoint x="110" y="458" />
              <mxPoint x="170" y="478" />
              <mxPoint x="100" y="498" />
            </Array>
          </mxGeometry>
        </mxCell>
        <mxCell id="DRyk3QGHLff0ThIQ0G42-28" value="生成支付订单&lt;br&gt;保存订单信息" style="edgeLabel;html=1;align=center;verticalAlign=middle;resizable=0;points=[];rounded=1;" vertex="1" connectable="0" parent="DRyk3QGHLff0ThIQ0G42-27">
          <mxGeometry x="-0.4885" y="-4" relative="1" as="geometry">
            <mxPoint x="-12" y="15" as="offset" />
          </mxGeometry>
        </mxCell>
        <mxCell id="DRyk3QGHLff0ThIQ0G42-18" value="" style="html=1;points=[];perimeter=orthogonalPerimeter;rounded=1;shadow=0;comic=0;labelBackgroundColor=none;strokeWidth=1;fontFamily=Verdana;fontSize=12;align=center;" vertex="1" parent="7baba1c4bc27f4b0-5">
          <mxGeometry x="45" y="358" width="10" height="170" as="geometry" />
        </mxCell>
        <mxCell id="DRyk3QGHLff0ThIQ0G42-40" value="" style="endArrow=classic;html=1;rounded=1;" edge="1" parent="7baba1c4bc27f4b0-5">
          <mxGeometry width="50" height="50" relative="1" as="geometry">
            <mxPoint x="-225.00333333333344" y="800" as="sourcePoint" />
            <mxPoint x="189.5" y="800" as="targetPoint" />
          </mxGeometry>
        </mxCell>
        <mxCell id="DRyk3QGHLff0ThIQ0G42-41" value="更新订单状态-支付成功存入db" style="edgeLabel;html=1;align=center;verticalAlign=middle;resizable=0;points=[];rounded=1;" vertex="1" connectable="0" parent="DRyk3QGHLff0ThIQ0G42-40">
          <mxGeometry x="-0.12" relative="1" as="geometry">
            <mxPoint as="offset" />
          </mxGeometry>
        </mxCell>
        <mxCell id="7baba1c4bc27f4b0-6" value="DBServer" style="shape=umlLifeline;perimeter=lifelinePerimeter;whiteSpace=wrap;html=1;container=1;collapsible=0;recursiveResize=0;outlineConnect=0;rounded=1;shadow=0;comic=0;labelBackgroundColor=none;strokeWidth=1;fontFamily=Verdana;fontSize=12;align=center;" parent="1" vertex="1">
          <mxGeometry x="820" y="80" width="100" height="1360" as="geometry" />
        </mxCell>
        <mxCell id="DRyk3QGHLff0ThIQ0G42-17" value="" style="html=1;points=[];perimeter=orthogonalPerimeter;rounded=1;shadow=0;comic=0;labelBackgroundColor=none;strokeWidth=1;fontFamily=Verdana;fontSize=12;align=center;" vertex="1" parent="7baba1c4bc27f4b0-6">
          <mxGeometry x="45" y="748" width="10" height="140" as="geometry" />
        </mxCell>
        <mxCell id="DRyk3QGHLff0ThIQ0G42-42" value="" style="html=1;points=[];perimeter=orthogonalPerimeter;rounded=1;shadow=0;comic=0;labelBackgroundColor=none;strokeWidth=1;fontFamily=Verdana;fontSize=12;align=center;" vertex="1" parent="7baba1c4bc27f4b0-6">
          <mxGeometry x="45" y="123" width="10" height="97" as="geometry" />
        </mxCell>
        <mxCell id="DRyk3QGHLff0ThIQ0G42-55" value="" style="endArrow=classic;html=1;rounded=1;" edge="1" parent="7baba1c4bc27f4b0-6">
          <mxGeometry width="50" height="50" relative="1" as="geometry">
            <mxPoint x="56" y="171" as="sourcePoint" />
            <mxPoint x="229.25" y="171" as="targetPoint" />
          </mxGeometry>
        </mxCell>
        <mxCell id="DRyk3QGHLff0ThIQ0G42-57" value="写入db" style="edgeLabel;html=1;align=center;verticalAlign=middle;resizable=0;points=[];rounded=1;" vertex="1" connectable="0" parent="DRyk3QGHLff0ThIQ0G42-55">
          <mxGeometry x="0.1968" y="-1" relative="1" as="geometry">
            <mxPoint as="offset" />
          </mxGeometry>
        </mxCell>
        <mxCell id="DRyk3QGHLff0ThIQ0G42-78" value="" style="endArrow=classic;html=1;rounded=1;dashed=1;exitX=0.083;exitY=0.633;exitDx=0;exitDy=0;exitPerimeter=0;" edge="1" parent="7baba1c4bc27f4b0-6">
          <mxGeometry width="50" height="50" relative="1" as="geometry">
            <mxPoint x="240.33000000000038" y="850" as="sourcePoint" />
            <mxPoint x="60" y="851" as="targetPoint" />
          </mxGeometry>
        </mxCell>
        <mxCell id="DRyk3QGHLff0ThIQ0G42-79" value="返回执行结果" style="edgeLabel;html=1;align=center;verticalAlign=middle;resizable=0;points=[];rounded=1;" vertex="1" connectable="0" parent="DRyk3QGHLff0ThIQ0G42-78">
          <mxGeometry x="-0.1641" y="3" relative="1" as="geometry">
            <mxPoint x="-25" y="-3" as="offset" />
          </mxGeometry>
        </mxCell>
        <mxCell id="7baba1c4bc27f4b0-7" value="DB" style="shape=umlLifeline;perimeter=lifelinePerimeter;whiteSpace=wrap;html=1;container=1;collapsible=0;recursiveResize=0;outlineConnect=0;rounded=1;shadow=0;comic=0;labelBackgroundColor=none;strokeWidth=1;fontFamily=Verdana;fontSize=12;align=center;" parent="1" vertex="1">
          <mxGeometry x="960" y="80" width="187.5" height="1360" as="geometry" />
        </mxCell>
        <mxCell id="DRyk3QGHLff0ThIQ0G42-47" value="" style="html=1;points=[];perimeter=orthogonalPerimeter;rounded=1;shadow=0;comic=0;labelBackgroundColor=none;strokeWidth=1;fontFamily=Verdana;fontSize=12;align=center;" vertex="1" parent="7baba1c4bc27f4b0-7">
          <mxGeometry x="88.75" y="170" width="10" height="40" as="geometry" />
        </mxCell>
        <mxCell id="DRyk3QGHLff0ThIQ0G42-53" value="" style="curved=1;endArrow=classic;html=1;rounded=1;startArrow=none;entryX=1.25;entryY=0.75;entryDx=0;entryDy=0;entryPerimeter=0;exitX=0.917;exitY=0.125;exitDx=0;exitDy=0;exitPerimeter=0;" edge="1" parent="7baba1c4bc27f4b0-7">
          <mxGeometry width="50" height="50" relative="1" as="geometry">
            <mxPoint x="-87.49999999999989" y="130" as="sourcePoint" />
            <mxPoint x="-84.16999999999996" y="155" as="targetPoint" />
            <Array as="points">
              <mxPoint x="-51.67000000000007" y="125" />
              <mxPoint x="-31.670000000000073" y="145" />
              <mxPoint x="-61.67000000000007" y="155" />
            </Array>
          </mxGeometry>
        </mxCell>
        <mxCell id="DRyk3QGHLff0ThIQ0G42-49" value="&lt;div style=&quot;text-align: left;&quot;&gt;&lt;span style=&quot;background-color: initial;&quot;&gt;1.检查订单信息&lt;/span&gt;&lt;/div&gt;&lt;div style=&quot;text-align: left;&quot;&gt;&lt;span style=&quot;background-color: initial;&quot;&gt;2.db检查，&lt;/span&gt;&lt;span style=&quot;background-color: initial;&quot;&gt;同一个人不可能同时&lt;/span&gt;&lt;/div&gt;&lt;div style=&quot;text-align: left;&quot;&gt;&lt;span style=&quot;background-color: initial;&quot;&gt;存&lt;/span&gt;&lt;span style=&quot;background-color: initial;&quot;&gt;在两个待支付的订单，&lt;/span&gt;&lt;span style=&quot;background-color: initial;&quot;&gt;如果已经存在&lt;/span&gt;&lt;/div&gt;&lt;div style=&quot;text-align: left;&quot;&gt;&lt;span style=&quot;background-color: initial;&quot;&gt;一&lt;/span&gt;&lt;span style=&quot;background-color: initial;&quot;&gt;个待支付的订单，则删除之前&lt;/span&gt;&lt;span style=&quot;background-color: initial;&quot;&gt;的订单&lt;/span&gt;&lt;/div&gt;&lt;div style=&quot;text-align: left;&quot;&gt;&lt;span style=&quot;background-color: initial;&quot;&gt;3.创建新的订单&lt;/span&gt;&lt;/div&gt;" style="text;html=1;align=center;verticalAlign=middle;resizable=0;points=[];autosize=1;strokeColor=none;fillColor=none;rounded=1;" vertex="1" parent="7baba1c4bc27f4b0-7">
          <mxGeometry x="-70" y="50" width="230" height="90" as="geometry" />
        </mxCell>
        <mxCell id="7baba1c4bc27f4b0-25" value="" style="html=1;points=[];perimeter=orthogonalPerimeter;rounded=1;shadow=0;comic=0;labelBackgroundColor=none;strokeColor=#000000;strokeWidth=1;fillColor=#FFFFFF;fontFamily=Verdana;fontSize=12;fontColor=#000000;align=center;" parent="7baba1c4bc27f4b0-7" vertex="1">
          <mxGeometry x="88.75" y="800" width="10" height="60" as="geometry" />
        </mxCell>
        <mxCell id="DRyk3QGHLff0ThIQ0G42-76" value="" style="endArrow=classic;html=1;rounded=1;" edge="1" parent="7baba1c4bc27f4b0-7">
          <mxGeometry width="50" height="50" relative="1" as="geometry">
            <mxPoint x="-85.00333333333356" y="810" as="sourcePoint" />
            <mxPoint x="90" y="810" as="targetPoint" />
          </mxGeometry>
        </mxCell>
        <mxCell id="DRyk3QGHLff0ThIQ0G42-77" value="执行存储过程更新db" style="edgeLabel;html=1;align=center;verticalAlign=middle;resizable=0;points=[];rounded=1;" vertex="1" connectable="0" parent="DRyk3QGHLff0ThIQ0G42-76">
          <mxGeometry x="-0.12" relative="1" as="geometry">
            <mxPoint as="offset" />
          </mxGeometry>
        </mxCell>
        <mxCell id="7baba1c4bc27f4b0-8" value="Client" style="shape=umlLifeline;perimeter=lifelinePerimeter;whiteSpace=wrap;html=1;container=1;collapsible=0;recursiveResize=0;outlineConnect=0;rounded=1;shadow=0;comic=0;labelBackgroundColor=none;strokeWidth=1;fontFamily=Verdana;fontSize=12;align=center;" parent="1" vertex="1">
          <mxGeometry x="-20" y="80" width="100" height="1360" as="geometry" />
        </mxCell>
        <mxCell id="7baba1c4bc27f4b0-9" value="" style="html=1;points=[];perimeter=orthogonalPerimeter;rounded=1;shadow=0;comic=0;labelBackgroundColor=none;strokeWidth=1;fontFamily=Verdana;fontSize=12;align=center;" parent="7baba1c4bc27f4b0-8" vertex="1">
          <mxGeometry x="45" y="90" width="10" height="170" as="geometry" />
        </mxCell>
        <mxCell id="DRyk3QGHLff0ThIQ0G42-19" value="" style="endArrow=classic;html=1;rounded=1;" edge="1" parent="7baba1c4bc27f4b0-8" target="DRyk3QGHLff0ThIQ0G42-18">
          <mxGeometry width="50" height="50" relative="1" as="geometry">
            <mxPoint x="50" y="368" as="sourcePoint" />
            <mxPoint x="100" y="318" as="targetPoint" />
          </mxGeometry>
        </mxCell>
        <mxCell id="DRyk3QGHLff0ThIQ0G42-20" value="拉取第三方支付界面" style="edgeLabel;html=1;align=center;verticalAlign=middle;resizable=0;points=[];rounded=1;" vertex="1" connectable="0" parent="DRyk3QGHLff0ThIQ0G42-19">
          <mxGeometry x="-0.199" relative="1" as="geometry">
            <mxPoint y="1" as="offset" />
          </mxGeometry>
        </mxCell>
        <mxCell id="DRyk3QGHLff0ThIQ0G42-13" value="" style="html=1;points=[];perimeter=orthogonalPerimeter;rounded=1;shadow=0;comic=0;labelBackgroundColor=none;strokeWidth=1;fontFamily=Verdana;fontSize=12;align=center;" vertex="1" parent="7baba1c4bc27f4b0-8">
          <mxGeometry x="45" y="338" width="10" height="530" as="geometry" />
        </mxCell>
        <mxCell id="DRyk3QGHLff0ThIQ0G42-32" value="" style="edgeStyle=elbowEdgeStyle;elbow=horizontal;endArrow=classic;html=1;curved=0;rounded=1;endSize=8;startSize=8;entryX=0.917;entryY=0.531;entryDx=0;entryDy=0;entryPerimeter=0;" edge="1" parent="7baba1c4bc27f4b0-8" target="DRyk3QGHLff0ThIQ0G42-13">
          <mxGeometry width="50" height="50" relative="1" as="geometry">
            <mxPoint x="60" y="568" as="sourcePoint" />
            <mxPoint x="120" y="618" as="targetPoint" />
            <Array as="points">
              <mxPoint x="110" y="598" />
            </Array>
          </mxGeometry>
        </mxCell>
        <mxCell id="7baba1c4bc27f4b0-11" value="用户点击购买商品" style="html=1;verticalAlign=bottom;endArrow=block;entryX=0;entryY=0;labelBackgroundColor=none;fontFamily=Verdana;fontSize=12;edgeStyle=elbowEdgeStyle;elbow=vertical;rounded=1;" parent="1" source="7baba1c4bc27f4b0-9" target="7baba1c4bc27f4b0-10" edge="1">
          <mxGeometry relative="1" as="geometry">
            <mxPoint x="180" y="190" as="sourcePoint" />
            <mxPoint as="offset" />
          </mxGeometry>
        </mxCell>
        <mxCell id="7baba1c4bc27f4b0-14" value="用户点击购买商品" style="html=1;verticalAlign=bottom;endArrow=block;labelBackgroundColor=none;fontFamily=Verdana;fontSize=12;edgeStyle=elbowEdgeStyle;elbow=vertical;exitX=1.02;exitY=0.283;exitDx=0;exitDy=0;exitPerimeter=0;rounded=1;" parent="1" source="7baba1c4bc27f4b0-10" target="7baba1c4bc27f4b0-13" edge="1">
          <mxGeometry relative="1" as="geometry">
            <mxPoint x="300" y="200" as="sourcePoint" />
            <mxPoint x="440" y="222" as="targetPoint" />
          </mxGeometry>
        </mxCell>
        <mxCell id="DRyk3QGHLff0ThIQ0G42-21" value="" style="endArrow=classic;html=1;rounded=1;exitX=0.5;exitY=0.294;exitDx=0;exitDy=0;exitPerimeter=0;dashed=1;" edge="1" parent="1" source="DRyk3QGHLff0ThIQ0G42-18">
          <mxGeometry width="50" height="50" relative="1" as="geometry">
            <mxPoint x="720" y="488" as="sourcePoint" />
            <mxPoint x="29.07142857142844" y="487.98" as="targetPoint" />
          </mxGeometry>
        </mxCell>
        <mxCell id="DRyk3QGHLff0ThIQ0G42-22" value="返回第三方支付拉取结果" style="edgeLabel;html=1;align=center;verticalAlign=middle;resizable=0;points=[];rounded=1;" vertex="1" connectable="0" parent="DRyk3QGHLff0ThIQ0G42-21">
          <mxGeometry x="-0.0679" relative="1" as="geometry">
            <mxPoint as="offset" />
          </mxGeometry>
        </mxCell>
        <mxCell id="DRyk3QGHLff0ThIQ0G42-12" value="" style="endArrow=classic;html=1;rounded=1;dashed=1;exitX=-0.14;exitY=0.955;exitDx=0;exitDy=0;exitPerimeter=0;" edge="1" parent="1" source="7baba1c4bc27f4b0-10" target="7baba1c4bc27f4b0-8">
          <mxGeometry width="50" height="50" relative="1" as="geometry">
            <mxPoint x="240" y="260" as="sourcePoint" />
            <mxPoint x="40" y="255" as="targetPoint" />
            <Array as="points" />
          </mxGeometry>
        </mxCell>
        <mxCell id="DRyk3QGHLff0ThIQ0G42-15" value="" style="endArrow=classic;html=1;rounded=1;exitX=-0.02;exitY=0.76;exitDx=0;exitDy=0;exitPerimeter=0;dashed=1;" edge="1" parent="1" source="7baba1c4bc27f4b0-13" target="7baba1c4bc27f4b0-10">
          <mxGeometry width="50" height="50" relative="1" as="geometry">
            <mxPoint x="440" y="250" as="sourcePoint" />
            <mxPoint x="490" y="200" as="targetPoint" />
          </mxGeometry>
        </mxCell>
        <mxCell id="DRyk3QGHLff0ThIQ0G42-16" value="返回订单信息，失败返回错误" style="text;html=1;align=center;verticalAlign=middle;resizable=0;points=[];autosize=1;strokeColor=none;fillColor=none;dashed=1;rounded=1;" vertex="1" parent="1">
          <mxGeometry x="60" y="290" width="180" height="30" as="geometry" />
        </mxCell>
        <mxCell id="DRyk3QGHLff0ThIQ0G42-25" value="" style="endArrow=classic;html=1;rounded=1;dashed=1;" edge="1" parent="1">
          <mxGeometry width="50" height="50" relative="1" as="geometry">
            <mxPoint x="729.83" y="592.5800000000002" as="sourcePoint" />
            <mxPoint x="29.996666666666513" y="592.5800000000002" as="targetPoint" />
          </mxGeometry>
        </mxCell>
        <mxCell id="DRyk3QGHLff0ThIQ0G42-29" value="返回订单支付成功数据" style="edgeLabel;html=1;align=center;verticalAlign=middle;resizable=0;points=[];rounded=1;" vertex="1" connectable="0" parent="DRyk3QGHLff0ThIQ0G42-25">
          <mxGeometry x="-0.1098" relative="1" as="geometry">
            <mxPoint as="offset" />
          </mxGeometry>
        </mxCell>
        <mxCell id="DRyk3QGHLff0ThIQ0G42-33" value="缓存订单数据" style="text;html=1;align=center;verticalAlign=middle;resizable=0;points=[];autosize=1;strokeColor=none;fillColor=none;rounded=1;" vertex="1" parent="1">
          <mxGeometry x="80" y="661" width="100" height="30" as="geometry" />
        </mxCell>
        <mxCell id="DRyk3QGHLff0ThIQ0G42-35" value="" style="endArrow=classic;html=1;rounded=1;entryX=-0.083;entryY=0.125;entryDx=0;entryDy=0;entryPerimeter=0;" edge="1" parent="1">
          <mxGeometry width="50" height="50" relative="1" as="geometry">
            <mxPoint x="35.83" y="828" as="sourcePoint" />
            <mxPoint x="265.00000000000006" y="828" as="targetPoint" />
          </mxGeometry>
        </mxCell>
        <mxCell id="DRyk3QGHLff0ThIQ0G42-36" value="支付成功" style="edgeLabel;html=1;align=center;verticalAlign=middle;resizable=0;points=[];rounded=1;" vertex="1" connectable="0" parent="DRyk3QGHLff0ThIQ0G42-35">
          <mxGeometry x="-0.12" relative="1" as="geometry">
            <mxPoint as="offset" />
          </mxGeometry>
        </mxCell>
        <mxCell id="DRyk3QGHLff0ThIQ0G42-44" value="" style="endArrow=classic;html=1;rounded=1;entryX=0.083;entryY=0.023;entryDx=0;entryDy=0;entryPerimeter=0;" edge="1" parent="1" source="7baba1c4bc27f4b0-3" target="DRyk3QGHLff0ThIQ0G42-42">
          <mxGeometry width="50" height="50" relative="1" as="geometry">
            <mxPoint x="620" y="260" as="sourcePoint" />
            <mxPoint x="670" y="210" as="targetPoint" />
          </mxGeometry>
        </mxCell>
        <mxCell id="DRyk3QGHLff0ThIQ0G42-46" value="向db中添加新订单" style="edgeLabel;html=1;align=center;verticalAlign=middle;resizable=0;points=[];rounded=1;" vertex="1" connectable="0" parent="DRyk3QGHLff0ThIQ0G42-44">
          <mxGeometry x="0.0448" y="-1" relative="1" as="geometry">
            <mxPoint as="offset" />
          </mxGeometry>
        </mxCell>
        <mxCell id="DRyk3QGHLff0ThIQ0G42-54" value="" style="endArrow=classic;html=1;rounded=1;exitX=0.167;exitY=0.896;exitDx=0;exitDy=0;exitPerimeter=0;dashed=1;" edge="1" parent="1" source="DRyk3QGHLff0ThIQ0G42-47" target="DRyk3QGHLff0ThIQ0G42-42">
          <mxGeometry width="50" height="50" relative="1" as="geometry">
            <mxPoint x="940" y="300" as="sourcePoint" />
            <mxPoint x="990" y="250" as="targetPoint" />
          </mxGeometry>
        </mxCell>
        <mxCell id="DRyk3QGHLff0ThIQ0G42-60" value="返回结果" style="edgeLabel;html=1;align=center;verticalAlign=middle;resizable=0;points=[];rounded=1;" vertex="1" connectable="0" parent="DRyk3QGHLff0ThIQ0G42-54">
          <mxGeometry x="-0.1645" relative="1" as="geometry">
            <mxPoint as="offset" />
          </mxGeometry>
        </mxCell>
        <mxCell id="DRyk3QGHLff0ThIQ0G42-58" value="" style="endArrow=classic;html=1;rounded=1;exitX=-0.167;exitY=0.444;exitDx=0;exitDy=0;exitPerimeter=0;dashed=1;" edge="1" parent="1" source="DRyk3QGHLff0ThIQ0G42-42" target="7baba1c4bc27f4b0-3">
          <mxGeometry width="50" height="50" relative="1" as="geometry">
            <mxPoint x="780" y="310" as="sourcePoint" />
            <mxPoint x="530" y="247" as="targetPoint" />
          </mxGeometry>
        </mxCell>
        <mxCell id="DRyk3QGHLff0ThIQ0G42-59" value="如果订单检查或创建失败返回错误" style="edgeLabel;html=1;align=center;verticalAlign=middle;resizable=0;points=[];rounded=1;" vertex="1" connectable="0" parent="DRyk3QGHLff0ThIQ0G42-58">
          <mxGeometry x="-0.0693" y="1" relative="1" as="geometry">
            <mxPoint as="offset" />
          </mxGeometry>
        </mxCell>
        <mxCell id="DRyk3QGHLff0ThIQ0G42-71" value="缓存订单数据" style="text;html=1;align=center;verticalAlign=middle;resizable=0;points=[];autosize=1;strokeColor=none;fillColor=none;rounded=1;" vertex="1" parent="1">
          <mxGeometry x="80" y="661" width="100" height="30" as="geometry" />
        </mxCell>
        <mxCell id="DRyk3QGHLff0ThIQ0G42-74" value="" style="edgeStyle=elbowEdgeStyle;elbow=horizontal;endArrow=classic;html=1;curved=0;rounded=1;endSize=8;startSize=8;" edge="1" parent="1" target="DRyk3QGHLff0ThIQ0G42-37">
          <mxGeometry width="50" height="50" relative="1" as="geometry">
            <mxPoint x="455.83" y="840" as="sourcePoint" />
            <mxPoint x="450.00000000000006" y="891.4299999999998" as="targetPoint" />
            <Array as="points">
              <mxPoint x="505.83" y="870" />
            </Array>
          </mxGeometry>
        </mxCell>
        <mxCell id="DRyk3QGHLff0ThIQ0G42-80" value="GooglePlay" style="shape=umlLifeline;perimeter=lifelinePerimeter;whiteSpace=wrap;html=1;container=1;collapsible=0;recursiveResize=0;outlineConnect=0;rounded=1;shadow=0;comic=0;labelBackgroundColor=none;strokeWidth=1;fontFamily=Verdana;fontSize=12;align=center;" vertex="1" parent="1">
          <mxGeometry x="680" y="80" width="100" height="1360" as="geometry" />
        </mxCell>
        <mxCell id="DRyk3QGHLff0ThIQ0G42-81" value="" style="curved=1;endArrow=classic;html=1;rounded=1;entryX=1.167;entryY=0.836;entryDx=0;entryDy=0;entryPerimeter=0;" edge="1" parent="DRyk3QGHLff0ThIQ0G42-80" target="DRyk3QGHLff0ThIQ0G42-83">
          <mxGeometry width="50" height="50" relative="1" as="geometry">
            <mxPoint x="50" y="458" as="sourcePoint" />
            <mxPoint x="100" y="408" as="targetPoint" />
            <Array as="points">
              <mxPoint x="110" y="458" />
              <mxPoint x="170" y="478" />
              <mxPoint x="100" y="498" />
            </Array>
          </mxGeometry>
        </mxCell>
        <mxCell id="DRyk3QGHLff0ThIQ0G42-82" value="生成支付订单&lt;br&gt;保存订单信息" style="edgeLabel;html=1;align=center;verticalAlign=middle;resizable=0;points=[];rounded=1;" vertex="1" connectable="0" parent="DRyk3QGHLff0ThIQ0G42-81">
          <mxGeometry x="-0.4885" y="-4" relative="1" as="geometry">
            <mxPoint x="-12" y="15" as="offset" />
          </mxGeometry>
        </mxCell>
        <mxCell id="DRyk3QGHLff0ThIQ0G42-83" value="" style="html=1;points=[];perimeter=orthogonalPerimeter;rounded=1;shadow=0;comic=0;labelBackgroundColor=none;strokeWidth=1;fontFamily=Verdana;fontSize=12;align=center;" vertex="1" parent="DRyk3QGHLff0ThIQ0G42-80">
          <mxGeometry x="45" y="358" width="10" height="170" as="geometry" />
        </mxCell>
        <mxCell id="DRyk3QGHLff0ThIQ0G42-86" value="" style="endArrow=classic;html=1;rounded=1;" edge="1" parent="DRyk3QGHLff0ThIQ0G42-80">
          <mxGeometry width="50" height="50" relative="1" as="geometry">
            <mxPoint x="-225.00333333333344" y="800" as="sourcePoint" />
            <mxPoint x="189.5" y="800" as="targetPoint" />
          </mxGeometry>
        </mxCell>
        <mxCell id="DRyk3QGHLff0ThIQ0G42-87" value="更新订单状态-支付成功存入db" style="edgeLabel;html=1;align=center;verticalAlign=middle;resizable=0;points=[];rounded=1;" vertex="1" connectable="0" parent="DRyk3QGHLff0ThIQ0G42-86">
          <mxGeometry x="-0.12" relative="1" as="geometry">
            <mxPoint as="offset" />
          </mxGeometry>
        </mxCell>
        <mxCell id="DRyk3QGHLff0ThIQ0G42-84" value="" style="endArrow=classic;html=1;rounded=1;dashed=1;exitX=0.083;exitY=0.633;exitDx=0;exitDy=0;exitPerimeter=0;" edge="1" parent="DRyk3QGHLff0ThIQ0G42-80">
          <mxGeometry width="50" height="50" relative="1" as="geometry">
            <mxPoint x="185.33000000000038" y="870.0000000000001" as="sourcePoint" />
            <mxPoint x="-225" y="870.9599999999999" as="targetPoint" />
          </mxGeometry>
        </mxCell>
        <mxCell id="DRyk3QGHLff0ThIQ0G42-85" value="返回db操作结果" style="edgeLabel;html=1;align=center;verticalAlign=middle;resizable=0;points=[];rounded=1;" vertex="1" connectable="0" parent="DRyk3QGHLff0ThIQ0G42-84">
          <mxGeometry x="-0.1641" y="3" relative="1" as="geometry">
            <mxPoint as="offset" />
          </mxGeometry>
        </mxCell>
        <mxCell id="DRyk3QGHLff0ThIQ0G42-92" value="&lt;p style=&quot;line-height: 0%;&quot;&gt;&lt;font face=&quot;Helvetica&quot; color=&quot;#ff0000&quot;&gt;&lt;span style=&quot;font-size: 11px;&quot;&gt;消费订单消息和支付成功消息&lt;/span&gt;&lt;/font&gt;&lt;/p&gt;&lt;p style=&quot;line-height: 0%;&quot;&gt;&lt;font face=&quot;Helvetica&quot; color=&quot;#ff0000&quot;&gt;&lt;span style=&quot;font-size: 11px;&quot;&gt;没有先后顺序&lt;br&gt;&lt;/span&gt;&lt;/font&gt;&lt;/p&gt;" style="text;html=1;align=left;verticalAlign=middle;resizable=0;points=[];autosize=1;strokeColor=none;fillColor=none;fontSize=20;fontFamily=Architects Daughter;" vertex="1" parent="1">
          <mxGeometry x="60" y="740" width="180" height="80" as="geometry" />
        </mxCell>
        <mxCell id="DRyk3QGHLff0ThIQ0G42-100" value="订单检查" style="text;html=1;align=center;verticalAlign=middle;resizable=0;points=[];autosize=1;strokeColor=none;fillColor=none;rounded=1;" vertex="1" parent="1">
          <mxGeometry x="500" y="1094" width="70" height="30" as="geometry" />
        </mxCell>
        <mxCell id="DRyk3QGHLff0ThIQ0G42-101" value="" style="edgeStyle=elbowEdgeStyle;elbow=horizontal;endArrow=classic;html=1;curved=0;rounded=1;endSize=8;startSize=8;" edge="1" parent="1">
          <mxGeometry width="50" height="50" relative="1" as="geometry">
            <mxPoint x="455.8299999999999" y="1094" as="sourcePoint" />
            <mxPoint x="455" y="1124" as="targetPoint" />
            <Array as="points">
              <mxPoint x="505.8299999999999" y="1124" />
            </Array>
          </mxGeometry>
        </mxCell>
      </root>
    </mxGraphModel>
  </diagram>
</mxfile>
